<svg viewBox="0 0 510 264" xmlns="http://www.w3.org/2000/svg" xml:space="preserve" fill-rule="evenodd" clip-rule="evenodd" stroke-linejoin="round" stroke-miterlimit="2">
  <path d="M11.24 97.78v8.01l-8.01 8.01v24.03l8.01 8.01v8.01h8.01V97.78h-8.01ZM463.666 137.83V113.8l-6.83-8.01v-8.01h-6.831v56.07h6.831v-8.01l6.83-8.01Z" fill="#be00ff" fill-rule="nonzero"/>
  <path d="M116.207 242.05H70.2l-40.619-40.61V13.69H399.94l39.73 39.74v188.62H153.203c.182-1.03.273-2.11.273-3.2 0-.77-.054-1.51-.146-2.26-1.111-9.28-9.049-16.51-18.626-16.51-9.595 0-17.515 7.23-18.625 16.51-.09.75-.145 1.49-.145 2.26 0 1.09.091 2.17.273 3.2Z" fill="#0013ff" fill-rule="nonzero"/>
  <path d="M399.94 13.69H29.581v187.75L70.2 242.05h46.008c-.182-1.03-.273-2.11-.273-3.2 0-.77.055-1.51.145-2.26H72.457l-37.415-37.41V19.15H397.68l36.52 36.54v180.9H153.331c.091.75.145 1.49.145 2.26 0 1.09-.091 2.17-.273 3.2H439.67V53.43l-39.73-39.74Z" fill="#fff" fill-rule="nonzero"/>
  <path d="M156.1 236.59c-1.131-10.81-10.289-19.24-21.395-19.24-11.105 0-20.264 8.43-21.393 19.24-.073.75-.109 1.49-.109 2.26 0 1.09.073 2.15.237 3.2 1.548 10.36 10.487 18.3 21.265 18.3s19.718-7.94 21.265-18.3c.17-1.05.24-2.11.24-3.2 0-.77-.04-1.51-.11-2.26Zm-21.395 21.03c-9.267 0-16.968-6.74-18.498-15.57-.182-1.03-.273-2.11-.273-3.2 0-.77.055-1.51.145-2.26 1.11-9.28 9.03-16.51 18.625-16.51 9.577 0 17.515 7.23 18.626 16.51.091.75.145 1.49.145 2.26 0 1.09-.091 2.17-.273 3.2-1.528 8.83-9.248 15.57-18.497 15.57Z" fill="#fff" fill-rule="nonzero"/>
  <path d="M158.83 236.59c-1.13-12.31-11.526-21.97-24.125-21.97s-22.995 9.66-24.123 21.97c-.073.75-.109 1.49-.109 2.26 0 1.09.072 2.17.218 3.2 1.566 11.86 11.743 21.03 24.014 21.03 12.272 0 22.445-9.17 24.015-21.03.15-1.03.22-2.11.22-3.2 0-.77-.04-1.51-.11-2.26Zm-5.354 2.26c0 1.09-.091 2.17-.273 3.2-1.529 8.83-9.249 15.57-18.498 15.57-9.267 0-16.968-6.74-18.498-15.57-.182-1.03-.273-2.11-.273-3.2 0-.77.055-1.51.145-2.26 1.11-9.28 9.03-16.51 18.625-16.51 9.577 0 17.515 7.23 18.626 16.51.092.75.146 1.49.146 2.26Z" fill="#fff" fill-rule="nonzero"/>
  <path fill="#fff" d="M207.92 0h159.854v16.426H207.92z"/>
  <path d="M144.118 238.85c0 1.13-.2 2.2-.565 3.2-1.311 3.63-4.789 6.21-8.849 6.21-4.06 0-7.537-2.58-8.848-6.21-.364-1-.565-2.07-.565-3.2 0-.78.091-1.55.292-2.26 1.001-4.09 4.715-7.15 9.121-7.15 4.406 0 8.121 3.06 9.122 7.15.202.71.292 1.48.292 2.26Z" fill="#b200ff" fill-rule="nonzero"/>
</svg>
