<svg version="1.1" id="Слой_1" xmlns="http://www.w3.org/2000/svg" xmlns:xlink="http://www.w3.org/1999/xlink" x="0px" y="0px"
     viewBox="231 1538.87 417.25 251.62" xml:space="preserve">
  <defs>
    <style type="text/css"><![CDATA[
      .color1 {fill:#ff5dcc}
	  .color2 {fill:#ffffff}
	  .color3 {fill:#ffacdb;}
	  .color4 {fill:#ca60ae}
	  .panel {
	  	stroke:#5efdf7;
		stroke-width:5px;
		fill:#5f6ee7;
		fill-opacity:0.65;
		}
    ]]></style>
  </defs>
<g id="box-tab">
	<g>
		<g>
			<polygon class="color4" points="333.868,1771.335 317.482,1787.721 251.939,1787.721 251.939,1656.634 268.324,1656.634 
				268.324,1771.335 			"/>
		</g>
	</g>
	<g>
		      <path class="color1" d="M 400.542 1790.452 L 327.275 1790.452 L 381.895 1735.832 L 524.347 1735.832 L 486.114 1774.066 L 416.929 1774.066 L 400.542 1790.452 Z"/>
	</g>

	<g>
		<polygon class="color2" points="287.441,1754.949 281.979,1754.949 281.979,1642.979 251.939,1642.979 251.939,1637.517 
			287.441,1637.517 		"/>
	</g>
	<g>
		<polygon class="color2" points="287.441,1632.055 251.939,1632.055 251.939,1626.593 281.979,1626.593 281.979,1621.131 
			251.939,1621.131 251.939,1615.669 287.441,1615.669 		"/>
	</g>
	<g>
		<g>
			<path class="color1" d="M648.24,1538.892v35.612h-5.571c0-8.284-3.368-15.804-8.794-21.247
				c-5.444-5.426-12.963-8.794-21.247-8.794v-5.571H648.24z"/>
		</g>
	</g>
	<g>
		<path class="panel" d="M 647.931 1724.908 L 314.751 1724.908 L 314.751 1608.606 L 299.965 1593.821 L 231.001 1593.821 L 231.001 1560.454 L 252.253 1539.201 L 580.787 1539.201 L 647.931 1606.345 L 647.931 1724.908 Z"/>
	</g>
</g>
</svg>