<?xml version="1.0" encoding="UTF-8" standalone="no"?>
<!DOCTYPE svg PUBLIC "-//W3C//DTD SVG 1.1//EN" "http://www.w3.org/Graphics/SVG/1.1/DTD/svg11.dtd">
<svg width="100%" height="100%" viewBox="0 0 510 264" version="1.1" xmlns="http://www.w3.org/2000/svg" xmlns:xlink="http://www.w3.org/1999/xlink" xml:space="preserve" xmlns:serif="http://www.serif.com/" style="fill-rule:evenodd;clip-rule:evenodd;stroke-linejoin:round;stroke-miterlimit:2;">
    <g transform="matrix(1,0,0,1,-844.95,-1527.37)">
        <g transform="matrix(1,0,0,1,-490,0)">
            <path d="M1346.19,1625.15L1346.19,1633.16L1338.18,1641.17L1338.18,1665.2L1346.19,1673.21L1346.19,1681.22L1354.2,1681.22L1354.2,1625.15L1346.19,1625.15Z" style="fill:rgb(190,0,255);fill-rule:nonzero;"/>
        </g>
        <g transform="matrix(1,0,0,1,450,0)">
            <path d="M858.616,1665.2L858.616,1641.17L851.786,1633.16L851.786,1625.15L844.955,1625.15L844.955,1681.22L851.786,1681.22L851.786,1673.21L858.616,1665.2Z" style="fill:rgb(190,0,255);fill-rule:nonzero;"/>
        </g>
    </g>
    <g transform="matrix(1,0,0,1,-844.95,-1527.37)">
        <path d="M961.157,1769.42L915.15,1769.42L874.531,1728.81L874.531,1541.06L1244.89,1541.06L1284.62,1580.8L1284.62,1769.42L998.153,1769.42C998.335,1768.39 998.426,1767.31 998.426,1766.22C998.426,1765.45 998.372,1764.71 998.28,1763.96C997.169,1754.68 989.231,1747.45 979.654,1747.45C970.059,1747.45 962.139,1754.68 961.029,1763.96C960.939,1764.71 960.884,1765.45 960.884,1766.22C960.884,1767.31 960.975,1768.39 961.157,1769.42Z" style="fill:rgb(0,19,255);fill-rule:nonzero;"/>
    </g>
    <g transform="matrix(1,0,0,1,-844.95,-1527.37)">
        <path d="M1244.89,1541.06L874.531,1541.06L874.531,1728.81L915.15,1769.42L961.158,1769.42C960.976,1768.39 960.885,1767.31 960.885,1766.22C960.885,1765.45 960.94,1764.71 961.03,1763.96L917.407,1763.96L879.992,1726.55L879.992,1546.52L1242.63,1546.52L1279.15,1583.06L1279.15,1763.96L998.281,1763.96C998.372,1764.71 998.426,1765.45 998.426,1766.22C998.426,1767.31 998.335,1768.39 998.153,1769.42L1284.62,1769.42L1284.62,1580.8L1244.89,1541.06Z" style="fill:white;fill-rule:nonzero;"/>
        <path d="M1001.05,1763.96C999.919,1753.15 990.761,1744.72 979.655,1744.72C968.55,1744.72 959.391,1753.15 958.262,1763.96C958.189,1764.71 958.153,1765.45 958.153,1766.22C958.153,1767.31 958.226,1768.37 958.39,1769.42C959.938,1779.78 968.877,1787.72 979.655,1787.72C990.433,1787.72 999.373,1779.78 1000.92,1769.42C1001.09,1768.37 1001.16,1767.31 1001.16,1766.22C1001.16,1765.45 1001.12,1764.71 1001.05,1763.96ZM979.655,1784.99C970.388,1784.99 962.687,1778.25 961.157,1769.42C960.975,1768.39 960.884,1767.31 960.884,1766.22C960.884,1765.45 960.939,1764.71 961.029,1763.96C962.139,1754.68 970.059,1747.45 979.654,1747.45C989.231,1747.45 997.169,1754.68 998.28,1763.96C998.371,1764.71 998.425,1765.45 998.425,1766.22C998.425,1767.31 998.334,1768.39 998.152,1769.42C996.624,1778.25 988.904,1784.99 979.655,1784.99Z" style="fill:white;fill-rule:nonzero;"/>
        <path d="M1003.78,1763.96C1002.65,1751.65 992.254,1741.99 979.655,1741.99C967.056,1741.99 956.66,1751.65 955.532,1763.96C955.459,1764.71 955.423,1765.45 955.423,1766.22C955.423,1767.31 955.495,1768.39 955.641,1769.42C957.207,1781.28 967.384,1790.45 979.655,1790.45C991.927,1790.45 1002.1,1781.28 1003.67,1769.42C1003.82,1768.39 1003.89,1767.31 1003.89,1766.22C1003.89,1765.45 1003.85,1764.71 1003.78,1763.96ZM998.426,1766.22C998.426,1767.31 998.335,1768.39 998.153,1769.42C996.624,1778.25 988.904,1784.99 979.655,1784.99C970.388,1784.99 962.687,1778.25 961.157,1769.42C960.975,1768.39 960.884,1767.31 960.884,1766.22C960.884,1765.45 960.939,1764.71 961.029,1763.96C962.139,1754.68 970.059,1747.45 979.654,1747.45C989.231,1747.45 997.169,1754.68 998.28,1763.96C998.372,1764.71 998.426,1765.45 998.426,1766.22Z" style="fill:white;fill-rule:nonzero;"/>
        <g transform="matrix(1,0,0,1,-30,0)">
            <rect x="1082.87" y="1527.37" width="159.854" height="16.426" style="fill:white;"/>
        </g>
    </g>
    <g transform="matrix(1,0,0,1,-844.95,-1527.37)">
        <path d="M989.068,1766.22C989.068,1767.35 988.868,1768.42 988.503,1769.42C987.192,1773.05 983.714,1775.63 979.654,1775.63C975.594,1775.63 972.117,1773.05 970.806,1769.42C970.442,1768.42 970.241,1767.35 970.241,1766.22C970.241,1765.44 970.332,1764.67 970.533,1763.96C971.534,1759.87 975.248,1756.81 979.654,1756.81C984.06,1756.81 987.775,1759.87 988.776,1763.96C988.978,1764.67 989.068,1765.44 989.068,1766.22Z" style="fill:rgb(178,0,255);fill-rule:nonzero;"/>
    </g>
</svg>
